<svg id="Layer_1" data-name="Layer 1" xmlns="http://www.w3.org/2000/svg" xmlns:xlink="http://www.w3.org/1999/xlink" viewBox="0 0 88 88"><defs><pattern id="_2_2_-_black" data-name="2/2 - black" width="4" height="4" patternTransform="translate(0 -1.56)" patternUnits="userSpaceOnUse" viewBox="0 0 4 4"><rect width="4" height="4" style="fill:none"/><rect width="2" height="2"/></pattern><clipPath id="clip-path"><polygon points="0 37.6 0 34.44 88 34.44 88 37.6 44 57.09 0 37.6" style="fill:none"/></clipPath><clipPath id="clip-path-2"><polygon points="91.9 32.62 60.62 46.48 60.62 28.71 18.74 28.71 18.74 42.65 -3.9 32.62 -4.71 34.45 44 56.02 92.71 34.45 91.9 32.62" style="fill:none"/></clipPath></defs><path d="M23,38.75V51.43c0,7,9.4,12.67,21,12.67s21-5.67,21-12.67V38.75H23Z" style="fill:#5879da"/><path d="M23,38.75V51.43c0,7,9.4,12.67,21,12.67V38.75H23Z" style="fill:url(#_2_2_-_black)"/><g style="clip-path:url(#clip-path)"><polygon points="44 56.02 -4.71 34.45 -3.9 32.62 44 53.84 91.9 32.62 92.71 34.45 44 56.02"/></g><polygon points="0 34.44 44 14.95 88 34.44 44 53.93 0 34.44" style="fill:#89dac1"/><rect x="19" y="41.77" width="2" height="19.68" style="fill:#89dac1"/><rect x="17" y="59.99" width="6" height="6" rx="3" ry="3" transform="translate(-42.99 82.99) rotate(-90)" style="fill:#5879da"/><polygon points="24.03 78.44 15.54 78.44 20 65.99 24.03 78.44" style="fill:#d6d6d5"/><g style="clip-path:url(#clip-path-2)"><polygon points="23 55.76 21 55.76 21 43.53 43.6 33.53 44.41 35.35 23 44.84 23 55.76" style="fill:#fff"/></g></svg>