<svg id="Layer_1" data-name="Layer 1" xmlns="http://www.w3.org/2000/svg" xmlns:xlink="http://www.w3.org/1999/xlink" viewBox="0 0 88 88"><defs><pattern id="_2_2_-_black" data-name="2/2 - black" width="4" height="4" patternTransform="translate(0 -0.83)" patternUnits="userSpaceOnUse" viewBox="0 0 4 4"><rect width="4" height="4" style="fill:none"/><rect width="2" height="2"/></pattern></defs><path d="M0,64.59H88a0,0,0,0,1,0,0v2.06a4.51,4.51,0,0,1-4.51,4.51h-79A4.51,4.51,0,0,1,0,66.65V64.59A0,0,0,0,1,0,64.59Z" style="fill:#5879da"/><path d="M12.11,16.83H77.19a2.6,2.6,0,0,1,2.6,2.6V64.59a0,0,0,0,1,0,0H9.51a0,0,0,0,1,0,0V19.43A2.6,2.6,0,0,1,12.11,16.83Z" style="fill:#5879da"/><rect x="25.49" y="9.29" width="38.33" height="61.85" transform="translate(4.44 84.86) rotate(-90)" style="fill:#d6d6d5"/><path d="M48.54,64.59H36.46a2.5,2.5,0,0,0,2.5,2.5H49a2.5,2.5,0,0,0,2.5-2.5h-3Z"/><rect x="9.51" y="62.59" width="70.28" height="2"/><polygon points="52.06 59.38 13.72 59.38 13.72 21.05 52.06 59.38" style="fill:#89dac1"/><polygon points="52.06 59.38 13.72 59.38 13.72 21.05 52.06 59.38" style="fill:url(#_2_2_-_black)"/><polygon points="13.72 21.05 37.24 21.05 75.58 59.38 52.06 59.38 13.72 21.05" style="fill:#89dac1"/></svg>