<svg id="Layer_1" data-name="Layer 1" xmlns="http://www.w3.org/2000/svg" xmlns:xlink="http://www.w3.org/1999/xlink" viewBox="0 0 88 88"><defs><clipPath id="clip-path"><rect width="88" height="88" style="fill:none"/></clipPath><pattern id="Unnamed_Pattern_3" data-name="Unnamed Pattern 3" width="4" height="4" patternTransform="translate(9.25 -0.64)" patternUnits="userSpaceOnUse" viewBox="0 0 4 4"><rect width="4" height="4" style="fill:none"/><rect width="2" height="2"/></pattern><pattern id="Unnamed_Pattern_3-3" data-name="Unnamed Pattern 3" width="4" height="4" patternTransform="translate(10.25 0.36)" patternUnits="userSpaceOnUse" viewBox="0 0 4 4"><rect width="4" height="4" style="fill:none"/><rect width="2" height="2"/></pattern></defs><title>Ubercom_Illustration_master_2</title><g style="clip-path:url(#clip-path)"><path d="M42.8,57.52h10V37.8l2.29-4.34-2.29-5.78h0a10,10,0,0,0-10,10V57.52Z"/><circle cx="66.61" cy="17.79" r="13.84" style="fill:#a5a5a5"/><path d="M50.78,46.77h19.9a4.37,4.37,0,0,1,4.37,4.37v0a0,0,0,0,1,0,0H46.41a0,0,0,0,1,0,0v0A4.37,4.37,0,0,1,50.78,46.77Z" style="fill:#5879da"/><path d="M50.78,46.77h19.9a4.37,4.37,0,0,1,4.37,4.37v0a0,0,0,0,1,0,0H46.41a0,0,0,0,1,0,0v0A4.37,4.37,0,0,1,50.78,46.77Z" style="fill:url(#Unnamed_Pattern_3)"/><path d="M75,51.14H46.65A17,17,0,0,0,29.79,70.32L32.08,88H88V64.14A13,13,0,0,0,75,51.14Z" style="fill:#5879da"/><path d="M75,51.14H46.65A17,17,0,0,0,29.79,70.32L32.08,88H88V64.14A13,13,0,0,0,75,51.14Z" style="fill:url(#Unnamed_Pattern_3-3)"/><path d="M52.77,51.14h18a4.25,4.25,0,0,1,4.25,4.25V72.2a0,0,0,0,1,0,0H73.84A21.06,21.06,0,0,1,52.77,51.14v0A0,0,0,0,1,52.77,51.14Z" style="fill:#fff"/><path d="M52.77,25V51.14A15.83,15.83,0,0,1,64,55.77l7.14,7.14V25H52.77Z" style="fill:#a5a5a5"/><path d="M66.61,37.18H77.88a2.58,2.58,0,0,0,2.58-2.58V17.79H66.61V37.18Z" style="fill:#a5a5a5"/><path d="M66.61,3.95A13.84,13.84,0,0,0,52.77,17.79v9.89L51.9,34.44l0.88,3.36L57.56,33a6.05,6.05,0,0,0,1.77-4.28V21.65a2.14,2.14,0,0,1,2.14-2.14h0a2.14,2.14,0,0,1,2.14,2.14V27L79.28,11.29a4.3,4.3,0,0,0-3-7.34H66.61Z"/><polygon points="63.62 26.95 63.62 26.95 63.62 26.95 63.62 26.95" style="fill:#777"/><path d="M52.77,48h0a0,0,0,0,1,0,0v40.3a0,0,0,0,1,0,0H36.63a0,0,0,0,1,0,0V64.13A16.14,16.14,0,0,1,52.77,48Z" style="fill:none"/><path d="M80.45,19.3v5.51h1.38a0.64,0.64,0,0,0,.45-1.1h0A6.24,6.24,0,0,1,80.45,19.3Z" style="fill:#a5a5a5"/><rect x="62.79" y="27.3" width="1.65" height="1.65" transform="translate(38.52 -36.75) rotate(45)" style="fill:#fff"/><rect x="79.67" y="17.79" width="1.51" height="5.6" style="fill:#5879da"/><path d="M80.5,20H64.39a1.51,1.51,0,0,1,1.51-1.51H80.5V20Z" style="fill:#5879da"/><path d="M54,72.14a24,24,0,0,0-23.8-20.92H7a7,7,0,0,0-7,7V88H56.09Z" style="fill:#89dac1"/><path d="M7.5,46.77H27a3.65,3.65,0,0,1,3.65,3.65v0.79a0,0,0,0,1,0,0H7.5a0,0,0,0,1,0,0V46.77A0,0,0,0,1,7.5,46.77Z"/><circle cx="23.74" cy="17.87" r="13.84" style="fill:#d6d6d5"/><path d="M23.74,41.55H34.56a3,3,0,0,0,3-3V17.87H23.74V41.55Z" style="fill:#d6d6d5"/><path d="M23.74,4A13.84,13.84,0,0,0,9.9,17.87V29.64h1.68a4.87,4.87,0,0,0,4.87-4.87v-3a2.14,2.14,0,0,1,2.14-2.14h0a2.14,2.14,0,0,1,2.14,2.14v1.51h3.35V19.59h0a3.65,3.65,0,0,1,3.65-3.65h0.08V13.26a1.89,1.89,0,0,1,1.89-1.89H36L37.3,10a5.06,5.06,0,0,0,1.48-3.58h0A2.43,2.43,0,0,0,36.35,4H23.74Z" style="fill:#5879da"/><path d="M37.58,19.38h0a6.24,6.24,0,0,0,1.83,4.41h0a3.74,3.74,0,0,1,1.1,2.64V27H37.58" style="fill:#d6d6d5"/><path d="M30.63,51.22H7.5A40.7,40.7,0,0,1,19.08,74.78l1.75,13.58H44L42.22,74.78A40.7,40.7,0,0,0,30.63,51.22h0Z"/><polygon points="28.23 51.22 28.23 25.04 9.9 25.04 9.9 51.22 22.16 51.22 28.23 57.29 28.23 51.22 28.23 51.22" style="fill:#d6d6d5"/><path d="M24.09,27V23.24H20.75V34.13a7.42,7.42,0,0,0,7.42,7.42h6.47a3,3,0,0,0,2.95-2.95V27H24.09Z" style="fill:#5879da"/><circle cx="29.99" cy="61.95" r="0.91" style="fill:#777"/><path d="M18.5,46.77H7.5v4.45L22.16,52.1V50.42A3.65,3.65,0,0,0,18.5,46.77Z"/></g></svg>