<svg id="Layer_1" data-name="Layer 1" xmlns="http://www.w3.org/2000/svg" xmlns:xlink="http://www.w3.org/1999/xlink" viewBox="0 0 88 88"><defs><pattern id="_2_2_-_black" data-name="2/2 - black" width="4" height="4" patternUnits="userSpaceOnUse" viewBox="0 0 4 4"><rect width="4" height="4" style="fill:none"/><rect width="2" height="2"/></pattern></defs><rect x="16.5" y="5.68" width="60.1" height="82.32" style="fill:#89dac1"/><polygon points="76.6 65.78 76.6 88 16.5 88 16.5 65.78 16.5 5.68 76.6 65.78" style="fill:url(#_2_2_-_black)"/><rect x="10.41" y="21.81" width="72.27" height="50.05" transform="translate(93.39 0.29) rotate(90)" style="fill:#fff"/><path d="M55.7,2.08h0A2.08,2.08,0,0,0,53.62,0H39.48A2.08,2.08,0,0,0,37.4,2.08h0a2.08,2.08,0,0,1-2.08,2.08H32.48A2.08,2.08,0,0,0,30.4,6.25V16.73H62.7V6.25a2.08,2.08,0,0,0-2.08-2.08H57.78A2.08,2.08,0,0,1,55.7,2.08Z"/><path d="M37.16,31.73H27.72V22.29h9.44v9.44Zm-7.44-2h5.44V24.29H29.72v5.44Z" style="fill:#d6d6d5"/><path d="M37.16,45.64H27.72V36.2h9.44v9.44Zm-7.44-2h5.44V38.2H29.72v5.44Z" style="fill:#d6d6d5"/><path d="M37.16,59.55H27.72V50.11h9.44v9.44Zm-7.44-2h5.44V52.11H29.72v5.44Z" style="fill:#d6d6d5"/><path d="M63.71,31.75A4,4,0,0,1,60.8,30.5a2.06,2.06,0,0,0-3.18,0,4,4,0,0,1-5.83,0,2.05,2.05,0,0,0-3.17,0,4,4,0,0,1-5.83,0,2.11,2.11,0,0,0-1.58-.75v-2A4,4,0,0,1,44.13,29a2.05,2.05,0,0,0,3.17,0,4,4,0,0,1,5.83,0,2.06,2.06,0,0,0,3.17,0,4,4,0,0,1,5.83,0,2.11,2.11,0,0,0,1.59.75v2Z" style="fill:#d6d6d5"/><path d="M63.71,45.66a4,4,0,0,1-2.92-1.25,2.06,2.06,0,0,0-3.18,0,4,4,0,0,1-5.83,0,2.05,2.05,0,0,0-3.17,0,4,4,0,0,1-5.83,0,2.11,2.11,0,0,0-1.58-.75v-2a4,4,0,0,1,2.91,1.25,2.05,2.05,0,0,0,3.17,0,4,4,0,0,1,5.83,0,2.06,2.06,0,0,0,3.17,0,4,4,0,0,1,5.83,0,2.11,2.11,0,0,0,1.59.75v2Z" style="fill:#d6d6d5"/><path d="M63.71,59.57a4,4,0,0,1-2.92-1.25,2.06,2.06,0,0,0-3.18,0,4,4,0,0,1-5.83,0,2.05,2.05,0,0,0-3.17,0,4,4,0,0,1-5.83,0,2.11,2.11,0,0,0-1.58-.75v-2a4,4,0,0,1,2.91,1.25,2.05,2.05,0,0,0,3.17,0,4,4,0,0,1,5.83,0,2.06,2.06,0,0,0,3.17,0,4,4,0,0,1,5.83,0,2.11,2.11,0,0,0,1.59.75v2Z" style="fill:#d6d6d5"/><path d="M63.71,73.49a4,4,0,0,1-2.92-1.25,2.06,2.06,0,0,0-3.18,0,4,4,0,0,1-5.83,0,2.05,2.05,0,0,0-3.17,0,4,4,0,0,1-5.83,0,2.11,2.11,0,0,0-1.58-.75v-2a4,4,0,0,1,2.91,1.25,2.05,2.05,0,0,0,3.17,0,4,4,0,0,1,5.83,0,2.06,2.06,0,0,0,3.17,0,4,4,0,0,1,5.83,0,2.11,2.11,0,0,0,1.59.75v2Z" style="fill:#d6d6d5"/><path d="M37.16,73.5H27.72V64.06h9.44V73.5Zm-7.44-2h5.44V66.06H29.72V71.5Z" style="fill:#d6d6d5"/><circle cx="46.55" cy="5.28" r="2.35" style="fill:#fff"/><rect x="30.4" y="10.7" width="32.31" height="2" style="fill:#5879da"/><rect x="11.57" y="6.02" width="4.94" height="82.32"/></svg>