<?xml version="1.0" encoding="iso-8859-1"?>
<!-- Generator: Adobe Illustrator 19.0.0, SVG Export Plug-In . SVG Version: 6.00 Build 0)  -->
<svg version="1.1" id="Capa_1" xmlns="http://www.w3.org/2000/svg" xmlns:xlink="http://www.w3.org/1999/xlink" x="0px" y="0px"
	 viewBox="0 0 512 512" style="enable-background:new 0 0 512 512;" xml:space="preserve">
<g>
	<path style="fill:#49F299;" d="M321,116v15c0,19.093-13.882,34.034-35.959,40.893l33.927-58.354L293.032,98.46L271,136.356V85h30
		V55h-45h-45v30h30v51.356l-22.032-37.895l-25.936,15.079l33.927,58.354C204.882,165.034,191,150.093,191,131v-15h-60v30h31.664
		c3.449,15.201,12.178,28.785,25.416,39.211C205.349,198.811,228.835,206,256,206s50.651-7.189,67.921-20.789
		c13.237-10.425,21.966-24.009,25.415-39.211H381v-30H321z"/>
	<circle style="fill:#49F299;" cx="256" cy="35" r="20"/>
</g>
<g>
	<path style="fill:#37DD8A;" d="M276,35c0-11.046-8.954-20-20-20v40C267.046,55,276,46.046,276,35z"/>
	<path style="fill:#37DD8A;" d="M321,116v15c0,19.093-13.882,34.034-35.959,40.893l33.927-58.354L293.032,98.46L271,136.356V85h30
		V55h-45v151c27.165,0,50.651-7.189,67.921-20.789c13.237-10.425,21.966-24.009,25.415-39.211H381v-30H321z"/>
</g>
<rect x="211" y="280" style="fill:#FFDC40;" width="30" height="202"/>
<g>
	<rect x="391" y="280" style="fill:#FFAB15;" width="30" height="202"/>
	<rect x="331" y="280" style="fill:#FFAB15;" width="30" height="202"/>
	<rect x="271" y="280" style="fill:#FFAB15;" width="30" height="202"/>
</g>
<g>
	<rect x="151" y="280" style="fill:#FFDC40;" width="30" height="202"/>
	<rect x="31" y="280" style="fill:#FFDC40;" width="30" height="202"/>
</g>
<rect x="451" y="280" style="fill:#FFAB15;" width="30" height="202"/>
<rect x="91" y="280" style="fill:#FFDC40;" width="30" height="202"/>
<g>
	<path style="fill:#FFEA84;" d="M512,286H0v-45h30v-45h452v45h30V286z"/>
	<rect y="467" style="fill:#FFEA84;" width="512" height="30"/>
</g>
<g>
	<polygon style="fill:#FFDC40;" points="482,241 482,196 256,196 256,286 512,286 512,241 	"/>
	<rect x="256" y="467" style="fill:#FFDC40;" width="256" height="30"/>
</g>
<g>
</g>
<g>
</g>
<g>
</g>
<g>
</g>
<g>
</g>
<g>
</g>
<g>
</g>
<g>
</g>
<g>
</g>
<g>
</g>
<g>
</g>
<g>
</g>
<g>
</g>
<g>
</g>
<g>
</g>
</svg>
